<?xml version="1.0" encoding="UTF-8" standalone="no"?>
<svg
   xmlns:dc="http://purl.org/dc/elements/1.1/"
   xmlns:cc="http://creativecommons.org/ns#"
   xmlns:rdf="http://www.w3.org/1999/02/22-rdf-syntax-ns#"
   xmlns:svg="http://www.w3.org/2000/svg"
   xmlns="http://www.w3.org/2000/svg"
   xmlns:sodipodi="http://sodipodi.sourceforge.net/DTD/sodipodi-0.dtd"
   xmlns:inkscape="http://www.inkscape.org/namespaces/inkscape"
   data-name="Layer 1"
   viewBox="0 0 41 41"
   version="1.1"
   id="svg21"
   sodipodi:docname="placeholder_round.svg"
   inkscape:version="0.92.2 (5c3e80d, 2017-08-06)">
  <metadata
     id="metadata25">
    <rdf:RDF>
      <cc:Work
         rdf:about="">
        <dc:format>image/svg+xml</dc:format>
        <dc:type
           rdf:resource="http://purl.org/dc/dcmitype/StillImage" />
      </cc:Work>
    </rdf:RDF>
  </metadata>
  <sodipodi:namedview
     pagecolor="#ffffff"
     bordercolor="#666666"
     borderopacity="1"
     objecttolerance="10"
     gridtolerance="10"
     guidetolerance="10"
     inkscape:pageopacity="0"
     inkscape:pageshadow="2"
     inkscape:window-width="2560"
     inkscape:window-height="1377"
     id="namedview23"
     showgrid="false"
     inkscape:zoom="8.1403512"
     inkscape:cx="-40.455477"
     inkscape:cy="37.01926"
     inkscape:window-x="-8"
     inkscape:window-y="-8"
     inkscape:window-maximized="1"
     inkscape:current-layer="svg21" />
  <defs
     id="defs11">
    <linearGradient
       id="a"
       x1="5.29"
       x2="36.27"
       y1="5.29"
       y2="36.27"
       gradientUnits="userSpaceOnUse">
      <stop
         offset="0"
         stop-color="#583ce5"
         id="stop2" />
      <stop
         offset="1"
         stop-color="#ffc34a"
         id="stop8"
         style="stop-color:#6b36d9;stop-opacity:1" />
    </linearGradient>
  </defs>
  <circle
     cx="20.5"
     cy="20.5"
     r="20.5"
     fill="url(#a)"
     id="circle13" />
  <g
     id="g821"
     transform="translate(-0.455,-0.02497712)">
    <path
       id="path15"
       d="m 25.52,30.77 h -9.53 a 5.79,5.79 0 0 1 -1.68,-0.44 5.87,5.87 0 0 1 -2.07,-1.48 5.76,5.76 0 0 1 -1.55,-3.92 v -8.75 a 5.55,5.55 0 0 1 0.19,-1.43 5.91,5.91 0 0 1 2.38,-3.41 5.66,5.66 0 0 1 3.29,-1.06 h 8.7 a 6,6 0 0 1 1.4,0.16 6,6 0 0 1 4.57,5.75 V 24.9 A 5.71,5.71 0 0 1 30.76,27.14 5.94,5.94 0 0 1 28.16,30 5.79,5.79 0 0 1 25.9,30.72 Z M 21,11.81 h -4.81 a 4,4 0 0 0 -1.73,0.55 4.27,4.27 0 0 0 -2.2,3.83 v 8.56 a 4.68,4.68 0 0 0 0.1,1 4.37,4.37 0 0 0 4.24,3.44 h 8.63 a 4.91,4.91 0 0 0 0.77,-0.06 4.17,4.17 0 0 0 2.15,-1 4.29,4.29 0 0 0 1.5,-3.33 v -8.55 a 4.68,4.68 0 0 0 0,-0.53 4.37,4.37 0 0 0 -4.3,-3.87 C 23.86,11.8 22.4,11.81 21,11.81 Z"
       inkscape:connector-curvature="0"
       style="fill:#ffffff" />
    <path
       id="path17"
       d="M 26.48,20.5 A 5.53,5.53 0 1 1 21,15 a 5.55,5.55 0 0 1 5.48,5.5 z m -9.48,0 a 4,4 0 1 0 4,-4 3.94,3.94 0 0 0 -4,4 z"
       inkscape:connector-curvature="0"
       style="fill:#ffffff" />
    <circle
       id="circle19"
       transform="rotate(-89.88,26.873,14.577)"
       r="1.1900001"
       cy="14.58"
       cx="26.870001"
       style="fill:#ffffff" />
  </g>
</svg>
