<?xml version="1.0" encoding="UTF-8" standalone="no"?>
<svg
   xmlns:dc="http://purl.org/dc/elements/1.1/"
   xmlns:cc="http://creativecommons.org/ns#"
   xmlns:rdf="http://www.w3.org/1999/02/22-rdf-syntax-ns#"
   xmlns:svg="http://www.w3.org/2000/svg"
   xmlns="http://www.w3.org/2000/svg"
   xmlns:xlink="http://www.w3.org/1999/xlink"
   xmlns:sodipodi="http://sodipodi.sourceforge.net/DTD/sodipodi-0.dtd"
   xmlns:inkscape="http://www.inkscape.org/namespaces/inkscape"
   data-name="Layer 1"
   viewBox="0 0 41.03017 41.091595"
   version="1.1"
   id="svg21"
   sodipodi:docname="placeholder.svg"
   inkscape:version="0.92.2 (5c3e80d, 2017-08-06)"
   width="41.03017"
   height="41.091595">
  <metadata
     id="metadata25">
    <rdf:RDF>
      <cc:Work
         rdf:about="">
        <dc:format>image/svg+xml</dc:format>
        <dc:type
           rdf:resource="http://purl.org/dc/dcmitype/StillImage" />
        <dc:title />
      </cc:Work>
    </rdf:RDF>
  </metadata>
  <sodipodi:namedview
     pagecolor="#666666"
     bordercolor="#666666"
     borderopacity="1"
     objecttolerance="10"
     gridtolerance="10"
     guidetolerance="10"
     inkscape:pageopacity="0"
     inkscape:pageshadow="2"
     inkscape:window-width="2560"
     inkscape:window-height="1377"
     id="namedview23"
     showgrid="false"
     inkscape:zoom="16.280702"
     inkscape:cx="12.401718"
     inkscape:cy="28.232952"
     inkscape:window-x="-8"
     inkscape:window-y="-8"
     inkscape:window-maximized="1"
     inkscape:current-layer="svg21"
     fit-margin-top="0"
     fit-margin-left="0"
     fit-margin-right="0"
     fit-margin-bottom="0" />
  <defs
     id="defs11">
    <linearGradient
       id="a"
       x1="5.29"
       x2="36.27"
       y1="5.29"
       y2="36.27"
       gradientUnits="userSpaceOnUse">
      <stop
         offset="0"
         stop-color="#583ce5"
         id="stop2" />
      <stop
         offset="1"
         stop-color="#ffc34a"
         id="stop8"
         style="stop-color:#6b36d9;stop-opacity:1" />
    </linearGradient>
    <linearGradient
       inkscape:collect="always"
       xlink:href="#a"
       id="linearGradient838"
       x1="6.8178878"
       y1="4.7300673"
       x2="35.317886"
       y2="36.301186"
       gradientUnits="userSpaceOnUse"
       gradientTransform="translate(0,0.09159322)" />
  </defs>
  <rect
     style="opacity:1;fill:url(#linearGradient838);fill-opacity:1;stroke:none;stroke-width:10;stroke-linecap:round;stroke-linejoin:bevel;stroke-miterlimit:4;stroke-dasharray:none;stroke-opacity:1"
     id="rect818"
     width="41.03017"
     height="41.091595"
     x="0"
     y="0" />
  <g
     id="g825"
     transform="translate(-0.43991478,-0.07077277)">
    <path
       style="fill:#ffffff"
       inkscape:connector-curvature="0"
       id="path15"
       d="m 25.52,30.861593 h -9.53 a 5.79,5.79 0 0 1 -1.68,-0.44 5.87,5.87 0 0 1 -2.07,-1.48 5.76,5.76 0 0 1 -1.55,-3.92 v -8.75 a 5.55,5.55 0 0 1 0.19,-1.43 5.91,5.91 0 0 1 2.38,-3.41 5.66,5.66 0 0 1 3.29,-1.06 h 8.7 a 6,6 0 0 1 1.4,0.16 6,6 0 0 1 4.57,5.75 v 8.71 a 5.71,5.71 0 0 1 -0.46,2.24 5.94,5.94 0 0 1 -2.6,2.86 5.79,5.79 0 0 1 -2.26,0.72 z m -4.52,-18.96 h -4.81 a 4,4 0 0 0 -1.73,0.55 4.27,4.27 0 0 0 -2.2,3.83 v 8.56 a 4.68,4.68 0 0 0 0.1,1 4.37,4.37 0 0 0 4.24,3.44 h 8.63 a 4.91,4.91 0 0 0 0.77,-0.06 4.17,4.17 0 0 0 2.15,-1 4.29,4.29 0 0 0 1.5,-3.33 v -8.55 a 4.68,4.68 0 0 0 0,-0.53 4.37,4.37 0 0 0 -4.3,-3.87 c -1.49,-0.05 -2.95,-0.04 -4.35,-0.04 z" />
    <path
       style="fill:#ffffff"
       inkscape:connector-curvature="0"
       id="path17"
       d="m 26.48,20.591593 a 5.53,5.53 0 1 1 -5.48,-5.5 5.55,5.55 0 0 1 5.48,5.5 z m -9.48,0 a 4,4 0 1 0 4,-4 3.94,3.94 0 0 0 -4,4 z" />
    <circle
       style="fill:#ffffff"
       id="circle19"
       transform="rotate(-89.88)"
       r="1.1900001"
       cy="26.906662"
       cx="-14.615277" />
  </g>
</svg>
